<?xml version="1.0" encoding="UTF-8" standalone="no"?>
<!DOCTYPE svg PUBLIC "-//W3C//DTD SVG 1.1//EN"
 "http://www.w3.org/Graphics/SVG/1.1/DTD/svg11.dtd">
<!-- Generated by graphviz version 2.38.0 (20140413.2041)
 -->
<!-- Title: mdmoverview Pages: 1 -->
<svg width="1311pt" height="571pt"
 viewBox="0.00 0.00 1311.00 571.00" xmlns="http://www.w3.org/2000/svg" xmlns:xlink="http://www.w3.org/1999/xlink">
<g id="graph0" class="graph" transform="scale(1 1) rotate(0) translate(4 567)">
<title>mdmoverview</title>
<polygon fill="white" stroke="none" points="-4,4 -4,-567 1307,-567 1307,4 -4,4"/>
<g id="clust1" class="cluster"><title>cluster_it</title>
<polygon fill="none" stroke="white" points="394,-58 394,-316 947,-316 947,-58 394,-58"/>
</g>
<g id="clust2" class="cluster"><title>cluster_hr</title>
<polygon fill="none" stroke="white" points="394,-324 394,-452 932,-452 932,-324 394,-324"/>
</g>
<!-- cso -->
<g id="node1" class="node"><title>cso</title>
<image xlink:href="/home/user/phd-thesis/figures/male.png" width="75px" height="75px" preserveAspectRatio="xMinYMin meet" x="12.5" y="-355"/>
<text text-anchor="start" x="34.5" y="-262.8" font-family="Helvetica,sans-Serif" font-size="14.00">CSO</text>
</g>
<!-- mdm_policy -->
<g id="node2" class="node"><title>mdm_policy</title>
<image xlink:href="/home/user/phd-thesis/figures/file-text-o.png" width="79px" height="75px" preserveAspectRatio="xMinYMin meet" x="199.5" y="-355"/>
<text text-anchor="start" x="199.5" y="-262.8" font-family="Helvetica,sans-Serif" font-size="14.00">BYOD Policy</text>
</g>
<!-- cso&#45;&gt;mdm_policy -->
<g id="edge5" class="edge"><title>cso&#45;&gt;mdm_policy</title>
<path fill="none" stroke="black" d="M99.1439,-307C122.827,-307 151.542,-307 176.66,-307"/>
<polygon fill="black" stroke="black" points="176.815,-310.5 186.815,-307 176.815,-303.5 176.815,-310.5"/>
<text text-anchor="middle" x="143" y="-310.8" font-family="Helvetica,sans-Serif" font-size="14.00">&lt;writes&gt;</text>
</g>
<!-- it_head -->
<g id="node3" class="node"><title>it_head</title>
<image xlink:href="/home/user/phd-thesis/figures/male.png" width="75px" height="75px" preserveAspectRatio="xMinYMin meet" x="414.5" y="-300"/>
<text text-anchor="start" x="427.5" y="-207.8" font-family="Helvetica,sans-Serif" font-size="14.00">IT Head</text>
</g>
<!-- mdm_policy&#45;&gt;it_head -->
<g id="edge17" class="edge"><title>mdm_policy&#45;&gt;it_head</title>
<path fill="none" stroke="black" d="M290.04,-293.826C320.756,-285.82 360.095,-275.565 392.134,-267.214"/>
<polygon fill="black" stroke="black" points="393.032,-270.597 401.825,-264.688 391.266,-263.823 393.032,-270.597"/>
<text text-anchor="middle" x="346" y="-291.8" font-family="Helvetica,sans-Serif" font-size="14.00">&lt;delegates&gt;</text>
</g>
<!-- hr_head -->
<g id="node7" class="node"><title>hr_head</title>
<image xlink:href="/home/user/phd-thesis/figures/male.png" width="75px" height="75px" preserveAspectRatio="xMinYMin meet" x="414.5" y="-436"/>
<text text-anchor="start" x="424" y="-343.8" font-family="Helvetica,sans-Serif" font-size="14.00">HR Head</text>
</g>
<!-- mdm_policy&#45;&gt;hr_head -->
<g id="edge16" class="edge"><title>mdm_policy&#45;&gt;hr_head</title>
<path fill="none" stroke="black" d="M290.04,-326.402C320.756,-338.193 360.095,-353.295 392.134,-365.594"/>
<polygon fill="black" stroke="black" points="391.235,-368.998 401.825,-369.314 393.744,-362.463 391.235,-368.998"/>
<text text-anchor="middle" x="346" y="-365.8" font-family="Helvetica,sans-Serif" font-size="14.00">&lt;delegates&gt;</text>
</g>
<!-- device -->
<g id="node10" class="node"><title>device</title>
<image xlink:href="/home/user/phd-thesis/figures/mobile-phone.png" width="75px" height="75px" preserveAspectRatio="xMinYMin meet" x="1216.5" y="-200"/>
<text text-anchor="start" x="1233" y="-107.8" font-family="Helvetica,sans-Serif" font-size="14.00">Device</text>
</g>
<!-- mdm_policy&#45;&gt;device -->
<g id="edge15" class="edge"><title>mdm_policy&#45;&gt;device</title>
<path fill="none" stroke="black" d="M253.753,-240.808C277.523,-150.563 334.554,-0 450.5,-0 450.5,-0 450.5,-0 1111.5,-0 1165.67,-0 1204.88,-52.5335 1228,-95.8327"/>
<polygon fill="black" stroke="black" points="250.312,-240.135 251.219,-250.691 257.093,-241.874 250.312,-240.135"/>
<text text-anchor="middle" x="745.5" y="-3.8" font-family="Helvetica,sans-Serif" font-size="14.00">&lt;reads&gt;</text>
</g>
<!-- user -->
<g id="node12" class="node"><title>user</title>
<image xlink:href="/home/user/phd-thesis/figures/male.png" width="75px" height="75px" preserveAspectRatio="xMinYMin meet" x="1216.5" y="-539"/>
<text text-anchor="start" x="1223.5" y="-446.8" font-family="Helvetica,sans-Serif" font-size="14.00">Employee</text>
</g>
<!-- mdm_policy&#45;&gt;user -->
<g id="edge18" class="edge"><title>mdm_policy&#45;&gt;user</title>
<path fill="none" stroke="black" d="M263.927,-372.602C295.254,-443.965 356.964,-548 450.5,-548 450.5,-548 450.5,-548 1111.5,-548 1143.84,-548 1177.52,-534.948 1203.85,-521.336"/>
<polygon fill="black" stroke="black" points="267.052,-371.008 259.891,-363.2 260.62,-373.769 267.052,-371.008"/>
<text text-anchor="middle" x="745.5" y="-551.8" font-family="Helvetica,sans-Serif" font-size="14.00">&lt;reads&gt;</text>
</g>
<!-- it_policy -->
<g id="node4" class="node"><title>it_policy</title>
<image xlink:href="/home/user/phd-thesis/figures/file-text-o.png" width="75px" height="75px" preserveAspectRatio="xMinYMin meet" x="601.5" y="-300"/>
<text text-anchor="start" x="613" y="-207.8" font-family="Helvetica,sans-Serif" font-size="14.00">IT Policy</text>
</g>
<!-- it_head&#45;&gt;it_policy -->
<g id="edge1" class="edge"><title>it_head&#45;&gt;it_policy</title>
<path fill="none" stroke="black" d="M501.107,-252C524.912,-252 553.766,-252 578.794,-252"/>
<polygon fill="black" stroke="black" points="578.897,-255.5 588.897,-252 578.897,-248.5 578.897,-255.5"/>
<text text-anchor="middle" x="545" y="-255.8" font-family="Helvetica,sans-Serif" font-size="14.00">&lt;writes&gt;</text>
</g>
<!-- it_admin -->
<g id="node5" class="node"><title>it_admin</title>
<image xlink:href="/home/user/phd-thesis/figures/male.png" width="75px" height="75px" preserveAspectRatio="xMinYMin meet" x="834" y="-300"/>
<text text-anchor="start" x="844" y="-207.8" font-family="Helvetica,sans-Serif" font-size="14.00">IT Admin</text>
</g>
<!-- it_policy&#45;&gt;it_admin -->
<g id="edge2" class="edge"><title>it_policy&#45;&gt;it_admin</title>
<path fill="none" stroke="black" d="M688.101,-252C723.959,-252 772.93,-252 811.028,-252"/>
<polygon fill="black" stroke="black" points="811.465,-255.5 821.465,-252 811.465,-248.5 811.465,-255.5"/>
<text text-anchor="middle" x="745.5" y="-255.8" font-family="Helvetica,sans-Serif" font-size="14.00">&lt;delegates&gt;</text>
</g>
<!-- it_network -->
<g id="node6" class="node"><title>it_network</title>
<image xlink:href="/home/user/phd-thesis/figures/server.png" width="100px" height="75px" preserveAspectRatio="xMinYMin meet" x="821" y="-170"/>
<text text-anchor="start" x="815" y="-77.8" font-family="Helvetica,sans-Serif" font-size="14.00">Company Network</text>
</g>
<!-- it_policy&#45;&gt;it_network -->
<g id="edge13" class="edge"><title>it_policy&#45;&gt;it_network</title>
<path fill="none" stroke="black" d="M688.101,-224.589C718.786,-207.283 759.074,-184.562 793.933,-164.901"/>
<polygon fill="black" stroke="black" points="795.678,-167.935 802.669,-159.974 792.239,-161.838 795.678,-167.935"/>
<text text-anchor="middle" x="745.5" y="-217.8" font-family="Helvetica,sans-Serif" font-size="14.00">&lt;configures&gt;</text>
</g>
<!-- hr_db -->
<g id="node9" class="node"><title>hr_db</title>
<image xlink:href="/home/user/phd-thesis/figures/database.png" width="82px" height="75px" preserveAspectRatio="xMinYMin meet" x="830" y="-436"/>
<text text-anchor="start" x="830" y="-343.8" font-family="Helvetica,sans-Serif" font-size="14.00">HR Database</text>
</g>
<!-- it_policy&#45;&gt;hr_db -->
<g id="edge12" class="edge"><title>it_policy&#45;&gt;hr_db</title>
<path fill="none" stroke="black" d="M688.101,-280.676C723.318,-301.454 771.184,-329.696 808.975,-351.994"/>
<polygon fill="black" stroke="black" points="807.467,-355.168 817.858,-357.235 811.024,-349.139 807.467,-355.168"/>
<text text-anchor="middle" x="745.5" y="-340.8" font-family="Helvetica,sans-Serif" font-size="14.00">&lt;delegates&gt;</text>
</g>
<!-- it_policy&#45;&gt;device -->
<g id="edge11" class="edge"><title>it_policy&#45;&gt;device</title>
<path fill="none" stroke="black" d="M673.167,-187.087C701.037,-141.123 745.37,-83.1728 803,-57 939.895,5.17134 1118.9,-75.7213 1203.78,-122.702"/>
<polygon fill="black" stroke="black" points="670.082,-185.428 667.984,-195.813 676.1,-189.002 670.082,-185.428"/>
<text text-anchor="middle" x="996.5" y="-56.8" font-family="Helvetica,sans-Serif" font-size="14.00">&lt;reads&gt;</text>
</g>
<!-- mdm -->
<g id="node11" class="node"><title>mdm</title>
<image xlink:href="/home/user/phd-thesis/figures/cog.png" width="89px" height="75px" preserveAspectRatio="xMinYMin meet" x="1066.5" y="-259"/>
<text text-anchor="start" x="1066.5" y="-166.8" font-family="Helvetica,sans-Serif" font-size="14.00">MDM package</text>
</g>
<!-- it_admin&#45;&gt;mdm -->
<g id="edge9" class="edge"><title>it_admin&#45;&gt;mdm</title>
<path fill="none" stroke="black" d="M920.635,-243.604C956.139,-237.475 1004.67,-229.097 1043.65,-222.368"/>
<polygon fill="black" stroke="black" points="1044.59,-225.757 1053.85,-220.606 1043.4,-218.859 1044.59,-225.757"/>
<text text-anchor="middle" x="996.5" y="-240.8" font-family="Helvetica,sans-Serif" font-size="14.00">&lt;configures&gt;</text>
</g>
<!-- it_network&#45;&gt;device -->
<g id="edge10" class="edge"><title>it_network&#45;&gt;device</title>
<path fill="none" stroke="black" d="M949.223,-119.937C1008.95,-119.406 1093.57,-120.976 1167,-131 1178.96,-132.633 1191.69,-135.258 1203.56,-138.107"/>
<polygon fill="black" stroke="black" points="949.075,-116.438 939.114,-120.049 949.152,-123.438 949.075,-116.438"/>
<text text-anchor="middle" x="1110.5" y="-134.8" font-family="Helvetica,sans-Serif" font-size="14.00">&lt;accesses&gt;</text>
</g>
<!-- hr_policy -->
<g id="node8" class="node"><title>hr_policy</title>
<image xlink:href="/home/user/phd-thesis/figures/file-text-o.png" width="75px" height="75px" preserveAspectRatio="xMinYMin meet" x="601.5" y="-436"/>
<text text-anchor="start" x="609" y="-343.8" font-family="Helvetica,sans-Serif" font-size="14.00">HR Policy</text>
</g>
<!-- hr_head&#45;&gt;hr_policy -->
<g id="edge3" class="edge"><title>hr_head&#45;&gt;hr_policy</title>
<path fill="none" stroke="black" d="M501.107,-388C524.912,-388 553.766,-388 578.794,-388"/>
<polygon fill="black" stroke="black" points="578.897,-391.5 588.897,-388 578.897,-384.5 578.897,-391.5"/>
<text text-anchor="middle" x="545" y="-391.8" font-family="Helvetica,sans-Serif" font-size="14.00">&lt;writes&gt;</text>
</g>
<!-- hr_policy&#45;&gt;hr_db -->
<g id="edge4" class="edge"><title>hr_policy&#45;&gt;hr_db</title>
<path fill="none" stroke="black" d="M688.101,-388C722.872,-388 769.974,-388 807.535,-388"/>
<polygon fill="black" stroke="black" points="807.858,-391.5 817.858,-388 807.858,-384.5 807.858,-391.5"/>
<text text-anchor="middle" x="745.5" y="-391.8" font-family="Helvetica,sans-Serif" font-size="14.00">&lt;configures&gt;</text>
</g>
<!-- hr_policy&#45;&gt;user -->
<g id="edge7" class="edge"><title>hr_policy&#45;&gt;user</title>
<path fill="none" stroke="black" d="M688.005,-411.66C719.909,-426.115 763.01,-443.579 803,-453 805.355,-453.555 1072.25,-475.924 1193.62,-486.077"/>
<polygon fill="black" stroke="black" points="1193.59,-489.587 1203.85,-486.933 1194.17,-482.612 1193.59,-489.587"/>
<text text-anchor="middle" x="996.5" y="-476.8" font-family="Helvetica,sans-Serif" font-size="14.00">&lt;obliges&gt;</text>
</g>
<!-- hr_policy&#45;&gt;user -->
<g id="edge8" class="edge"><title>hr_policy&#45;&gt;user</title>
<path fill="none" stroke="black" d="M696.315,-442.15C699.498,-444.257 702.734,-446.224 706,-448 745.212,-469.319 759.059,-466.173 803,-474 970.424,-503.822 1014.95,-494.053 1185,-496 1191.11,-496.07 1197.52,-495.905 1203.86,-495.598"/>
<polygon fill="black" stroke="black" points="698.212,-439.204 688.029,-436.278 694.165,-444.916 698.212,-439.204"/>
<text text-anchor="middle" x="996.5" y="-499.8" font-family="Helvetica,sans-Serif" font-size="14.00">&lt;reads&gt;</text>
</g>
<!-- device&#45;&gt;mdm -->
<g id="edge6" class="edge"><title>device&#45;&gt;mdm</title>
<path fill="none" stroke="black" d="M1203.57,-178.936C1194.87,-182.818 1185.68,-186.753 1176.61,-190.488"/>
<polygon fill="black" stroke="black" points="1175.18,-187.293 1167.23,-194.298 1177.81,-193.778 1175.18,-187.293"/>
</g>
<!-- mdm&#45;&gt;device -->
<g id="edge14" class="edge"><title>mdm&#45;&gt;device</title>
<path fill="none" stroke="black" d="M1167.23,-181.065C1176.05,-177.214 1185.19,-173.373 1194.07,-169.79"/>
<polygon fill="black" stroke="black" points="1195.57,-172.959 1203.57,-166.014 1192.98,-166.454 1195.57,-172.959"/>
</g>
<!-- user&#45;&gt;device -->
<g id="edge19" class="edge"><title>user&#45;&gt;device</title>
<path fill="none" stroke="black" d="M1253.5,-434.788C1253.5,-375.367 1253.5,-281.685 1253.5,-218.6"/>
<polygon fill="black" stroke="black" points="1257,-218.359 1253.5,-208.359 1250,-218.36 1257,-218.359"/>
<text text-anchor="middle" x="1243" y="-317.8" font-family="Helvetica,sans-Serif" font-size="14.00">&lt;uses&gt;</text>
</g>
</g>
</svg>
